<?xml version="1.0" encoding="UTF-8" standalone="no"?>
<!-- Created with Inkscape (http://www.inkscape.org/) -->

<svg
   xmlns:dc="http://purl.org/dc/elements/1.1/"
   xmlns:cc="http://creativecommons.org/ns#"
   xmlns:rdf="http://www.w3.org/1999/02/22-rdf-syntax-ns#"
   xmlns:svg="http://www.w3.org/2000/svg"
   xmlns="http://www.w3.org/2000/svg"
   xmlns:sodipodi="http://sodipodi.sourceforge.net/DTD/sodipodi-0.dtd"
   xmlns:inkscape="http://www.inkscape.org/namespaces/inkscape"
   width="200mm"
   height="80mm"
   viewBox="0 0 708.66142 283.46456"
   id="svg2"
   version="1.1"
   inkscape:version="0.91 r13725"
   sodipodi:docname="Logo_path.svg">
  <defs
     id="defs4" />
  <sodipodi:namedview
     id="base"
     pagecolor="#ffffff"
     bordercolor="#666666"
     borderopacity="1.0"
     inkscape:pageopacity="0.0"
     inkscape:pageshadow="2"
     inkscape:zoom="0.66858214"
     inkscape:cx="418.24899"
     inkscape:cy="5.7510816"
     inkscape:document-units="px"
     inkscape:current-layer="layer1"
     showgrid="false"
     inkscape:window-width="1920"
     inkscape:window-height="1054"
     inkscape:window-x="0"
     inkscape:window-y="0"
     inkscape:window-maximized="1" />
  <metadata
     id="metadata7">
    <rdf:RDF>
      <cc:Work
         rdf:about="">
        <dc:format>image/svg+xml</dc:format>
        <dc:type
           rdf:resource="http://purl.org/dc/dcmitype/StillImage" />
        <dc:title />
      </cc:Work>
    </rdf:RDF>
  </metadata>
  <g
     inkscape:label="Ebene 1"
     inkscape:groupmode="layer"
     id="layer1"
     transform="translate(0,-768.89764)">
    <g
       id="g3338"
       transform="matrix(4.1497527,0,0,4.1497527,-68.064625,738.88387)">
      <g
         style="font-style:normal;font-weight:normal;font-size:40px;line-height:125%;font-family:sans-serif;letter-spacing:0px;word-spacing:0px;fill:#ffffff;fill-opacity:1;stroke:none;stroke-width:1px;stroke-linecap:butt;stroke-linejoin:miter;stroke-opacity:1"
         id="text3340-3">
        <path
           d="m 20.137524,68.850363 6.064375,-13.13625 1.1625,0.600625 -6.08375,13.0975 -1.143125,-0.561875 z"
           style="font-style:normal;font-variant:normal;font-weight:normal;font-stretch:normal;font-size:19.375px;line-height:125%;font-family:Inconsolata;-inkscape-font-specification:'Inconsolata, Normal';text-align:start;writing-mode:lr-tb;text-anchor:start"
           id="path3339" />
        <path
           d="m 32.711899,58.542863 1.569375,0 q -0.01938,0.11625 -0.05813,0.27125 -0.03875,0.135625 -0.05812,0.251875 l -0.290625,2.90625 3.080625,-1.395 0.50375,1.181875 -3.313125,1.0075 2.44125,2.925625 -1.065625,0.833125 -2.0925,-3.21625 -2.17,3.235625 -1.04625,-0.8525 2.51875,-2.90625 -3.351875,-1.026875 0.50375,-1.259375 3.13875,1.4725 -0.31,-3.429375 z"
           style="font-style:normal;font-variant:normal;font-weight:normal;font-stretch:normal;font-size:19.375px;line-height:125%;font-family:Inconsolata;-inkscape-font-specification:'Inconsolata, Normal';text-align:start;writing-mode:lr-tb;text-anchor:start"
           id="path3341" />
        <path
           d="m 39.415649,56.527863 3.875,0 q 1.0075,0 1.705,0.27125 0.716875,0.251875 1.1625,0.73625 0.465,0.465 0.678125,1.085 0.2325,0.62 0.27125,1.3175 -0.03875,0.6975 -0.27125,1.3175 -0.213125,0.600625 -0.65875,1.04625 -0.42625,0.445625 -1.12375,0.716875 -0.678125,0.251875 -1.66625,0.251875 l -2.576875,0 0,5.328125 -1.395,0 0,-12.070625 z m 1.395,1.27875 0,4.2625 2.421875,0 q 1.3175,0 1.86,-0.561875 0.561875,-0.58125 0.62,-1.530625 -0.03875,-0.445625 -0.19375,-0.833125 -0.135625,-0.406875 -0.42625,-0.6975 -0.290625,-0.290625 -0.755625,-0.465 -0.445625,-0.174375 -1.085,-0.174375 l -2.44125,0 z"
           style="font-style:normal;font-variant:normal;font-weight:normal;font-stretch:normal;font-size:19.375px;line-height:125%;font-family:Inconsolata;-inkscape-font-specification:'Inconsolata, Normal';text-align:start;writing-mode:lr-tb;text-anchor:start"
           id="path3343" />
        <path
           d="m 49.006274,56.527863 1.51125,0 q 0.01937,0.01937 0.01937,0.05812 0,0.05812 -0.05812,0.155 -0.03875,0.09687 -0.05813,0.251875 l 0,4.708125 4.7275,0 0,-5.173125 1.4725,0 q 0.01937,0.01937 0.01937,0.05812 0,0.0775 -0.05812,0.174375 -0.05812,0.0775 -0.0775,0.19375 l 0,11.66375 -1.375625,0 0,-5.77375 -4.708125,0 0,5.754375 -1.414375,0 0,-12.070625 z"
           style="font-style:normal;font-variant:normal;font-weight:normal;font-stretch:normal;font-size:19.375px;line-height:125%;font-family:Inconsolata;-inkscape-font-specification:'Inconsolata, Normal';text-align:start;writing-mode:lr-tb;text-anchor:start"
           id="path3345" />
        <path
           d="m 58.790649,56.527863 3.875,0 q 1.0075,0 1.705,0.27125 0.716875,0.251875 1.1625,0.73625 0.465,0.465 0.678125,1.085 0.2325,0.62 0.27125,1.3175 -0.03875,0.6975 -0.27125,1.3175 -0.213125,0.600625 -0.65875,1.04625 -0.42625,0.445625 -1.12375,0.716875 -0.678125,0.251875 -1.66625,0.251875 l -2.576875,0 0,5.328125 -1.395,0 0,-12.070625 z m 1.395,1.27875 0,4.2625 2.421875,0 q 1.3175,0 1.86,-0.561875 0.561875,-0.58125 0.62,-1.530625 -0.03875,-0.445625 -0.19375,-0.833125 -0.135625,-0.406875 -0.42625,-0.6975 -0.290625,-0.290625 -0.755625,-0.465 -0.445625,-0.174375 -1.085,-0.174375 l -2.44125,0 z"
           style="font-style:normal;font-variant:normal;font-weight:normal;font-stretch:normal;font-size:19.375px;line-height:125%;font-family:Inconsolata;-inkscape-font-specification:'Inconsolata, Normal';text-align:start;writing-mode:lr-tb;text-anchor:start"
           id="path3347" />
        <path
           d="m 83.668149,55.597863 q 1.685625,0 2.7125,1.220625 l -0.639375,1.27875 q -0.155,0 -0.155,-0.155 0,-0.155 -0.03875,-0.2325 -0.31,-0.445625 -0.833125,-0.716875 -0.50375,-0.290625 -1.104375,-0.290625 -0.50375,0 -0.871875,0.155 -0.368125,0.135625 -0.65875,0.465 -0.290625,0.329375 -0.445625,0.89125 -0.135625,0.561875 -0.135625,1.375625 l 0,0.678125 2.90625,0 0,1.104375 -2.90625,0 0,7.226875 -1.336875,0 0,-7.226875 -1.918125,0 0,-1.104375 1.918125,0 0,-0.871875 q 0,-1.026875 0.251875,-1.74375 0.27125,-0.73625 0.755625,-1.181875 0.50375,-0.445625 1.12375,-0.65875 0.639375,-0.213125 1.375625,-0.213125 z"
           style="font-style:normal;font-variant:normal;font-weight:normal;font-stretch:normal;font-size:19.375px;line-height:125%;font-family:Inconsolata;-inkscape-font-specification:'Inconsolata, Normal';text-align:start;writing-mode:lr-tb;text-anchor:start"
           id="path3349" />
        <path
           d="m 88.628149,59.744113 1.453125,0 -0.03875,1.705 q 0.406875,-0.93 1.27875,-1.414375 0.89125,-0.50375 1.89875,-0.50375 1.43375,0 2.36375,0.96875 l -0.639375,1.336875 q -0.213125,-0.290625 -0.3875,-0.484375 -0.174375,-0.19375 -0.3875,-0.329375 -0.19375,-0.135625 -0.445625,-0.213125 -0.2325,-0.0775 -0.58125,-0.0775 -0.639375,0 -1.20125,0.31 -0.561875,0.290625 -0.988125,0.794375 -0.406875,0.484375 -0.65875,1.12375 -0.251875,0.639375 -0.251875,1.336875 l 0,4.320625 -1.414375,0 0,-8.87375 z"
           style="font-style:normal;font-variant:normal;font-weight:normal;font-stretch:normal;font-size:19.375px;line-height:125%;font-family:Inconsolata;-inkscape-font-specification:'Inconsolata, Normal';text-align:start;writing-mode:lr-tb;text-anchor:start"
           id="path3351" />
        <path
           d="m 98.160649,60.790363 q 1.181875,-1.24 3.158121,-1.24 1.6275,0 2.5575,0.833125 0.94938,0.81375 0.94938,2.731875 l 0,5.483125 -1.3175,0 0,-0.96875 q -1.41438,1.181875 -3.1775,1.181875 -0.697501,0 -1.259376,-0.213125 -0.5425,-0.213125 -0.93,-0.561875 -0.3875,-0.34875 -0.600625,-0.794375 -0.19375,-0.445625 -0.19375,-0.89125 0,-1.336875 1.143125,-2.111875 1.1625,-0.775 3.332496,-0.8525 l 1.66625,0 0,-0.329375 q 0,-1.3175 -0.56187,-1.840625 -0.5425,-0.523125 -1.705,-0.523125 -1.433751,0 -2.383126,0.988125 l -0.678125,-0.89125 z m 5.386251,3.661875 -0.32938,0 q -0.27125,0 -0.52312,0 -0.2325,-0.01937 -0.465,-0.01937 -1.06563,0 -1.74375,0.155 -0.678126,0.135625 -1.065626,0.3875 -0.3875,0.251875 -0.5425,0.58125 -0.135625,0.31 -0.135625,0.678125 0,0.62 0.5425,1.065625 0.5425,0.445625 1.336871,0.445625 0.58125,0 1.04625,-0.174375 0.465,-0.19375 0.81375,-0.445625 0.34875,-0.27125 0.56188,-0.5425 0.21312,-0.290625 0.31,-0.50375 0.19375,-0.3875 0.19375,-1.04625 l 0,-0.58125 z"
           style="font-style:normal;font-variant:normal;font-weight:normal;font-stretch:normal;font-size:19.375px;line-height:125%;font-family:Inconsolata;-inkscape-font-specification:'Inconsolata, Normal';text-align:start;writing-mode:lr-tb;text-anchor:start"
           id="path3353" />
        <path
           d="m 106.82127,68.598488 0,-8.854375 1.27875,0 0,0.871875 q 0.31,-0.484375 0.79438,-0.775 0.48437,-0.31 1.02687,-0.31 0.56188,0 0.98813,0.368125 0.44562,0.368125 0.56187,0.93 0.25188,-0.58125 0.79438,-0.93 0.5425,-0.368125 1.18187,-0.368125 0.91063,0 1.33688,0.65875 0.42625,0.639375 0.3875,1.608125 l 0,6.800625 -1.27875,0 0,-6.2775 q 0,-0.600625 -0.0581,-0.949375 -0.0581,-0.34875 -0.19375,-0.523125 -0.13562,-0.19375 -0.27125,-0.2325 -0.13562,-0.05813 -0.34875,-0.05813 -0.25187,0 -0.50375,0.213125 -0.25187,0.19375 -0.44562,0.50375 -0.19375,0.31 -0.31,0.716875 -0.11625,0.3875 -0.11625,0.755625 l 0,5.85125 -1.29813,0 0,-6.16125 q 0,-1.104375 -0.21312,-1.4725 -0.19375,-0.368125 -0.6975,-0.368125 -0.465,0 -0.91063,0.561875 -0.42625,0.5425 -0.42625,1.530625 l 0,5.909375 -1.27875,0 z"
           style="font-style:normal;font-variant:normal;font-weight:normal;font-stretch:normal;font-size:19.375px;line-height:125%;font-family:Inconsolata;-inkscape-font-specification:'Inconsolata, Normal';text-align:start;writing-mode:lr-tb;text-anchor:start"
           id="path3355" />
        <path
           d="m 120.79065,59.530988 q 0.6975,0 1.35625,0.251875 0.65875,0.251875 1.14312,0.775 0.50375,0.50375 0.79438,1.298125 0.31,0.794375 0.31,1.879375 0,0.155 -0.0194,0.329375 0,0.155 -0.0194,0.31 l -6.29688,0 q 0.0388,0.93 0.31,1.569375 0.29063,0.62 0.71688,1.0075 0.42625,0.3875 0.94937,0.561875 0.52313,0.155 1.04625,0.155 1.37563,0 2.28625,-0.988125 l 0.775,0.755625 q -1.12375,1.35625 -3.1,1.35625 -0.96875,0 -1.7825,-0.290625 -0.79437,-0.31 -1.35625,-0.89125 -0.56187,-0.58125 -0.87187,-1.43375 -0.31,-0.871875 -0.31,-1.97625 0,-1.12375 0.31,-1.995625 0.32937,-0.871875 0.87187,-1.453125 0.56188,-0.600625 1.29813,-0.910625 0.73625,-0.31 1.58875,-0.31 z m -2.67375,3.75875 4.86312,0 q 0,-0.0775 0,-0.135625 0.0194,-0.0775 0.0194,-0.174375 0,-0.484375 -0.19375,-0.910625 -0.17438,-0.445625 -0.48438,-0.755625 -0.31,-0.329375 -0.73625,-0.523125 -0.40687,-0.19375 -0.89125,-0.19375 -0.91062,0 -1.64687,0.65875 -0.73625,0.639375 -0.93,2.034375 z"
           style="font-style:normal;font-variant:normal;font-weight:normal;font-stretch:normal;font-size:19.375px;line-height:125%;font-family:Inconsolata;-inkscape-font-specification:'Inconsolata, Normal';text-align:start;writing-mode:lr-tb;text-anchor:start"
           id="path3357" />
        <path
           d="m 125.77002,59.744113 1.41438,0 0,0.0775 q 0,0.11625 -0.0387,0.27125 -0.0388,0.135625 -0.0388,0.27125 0,0.0775 0.0194,0.11625 l 1.29813,6.374375 1.51125,-6.2775 0.8525,0 1.87937,6.258125 q 0.25188,-1.705 0.40688,-2.809375 0.17437,-1.104375 0.25187,-1.82125 0.0969,-0.73625 0.11625,-1.20125 0.0387,-0.484375 0.0387,-0.96875 l 0,-0.290625 1.29813,0 q -0.29063,2.2475 -0.65875,4.45625 -0.36813,2.20875 -0.81375,4.4175 l -1.3175,0 -1.6275,-5.735 -1.55,5.735 -1.25938,0 -1.7825,-8.87375 z"
           style="font-style:normal;font-variant:normal;font-weight:normal;font-stretch:normal;font-size:19.375px;line-height:125%;font-family:Inconsolata;-inkscape-font-specification:'Inconsolata, Normal';text-align:start;writing-mode:lr-tb;text-anchor:start"
           id="path3359" />
        <path
           d="m 140.06877,59.550363 q 0.81375,0 1.53063,0.329375 0.73625,0.31 1.27875,0.910625 0.5425,0.600625 0.8525,1.4725 0.32937,0.8525 0.32937,1.918125 0,1.085 -0.31,1.9375 -0.31,0.8525 -0.8525,1.4725 -0.5425,0.600625 -1.27875,0.93 -0.73625,0.31 -1.56937,0.31 -0.8525,0 -1.60813,-0.34875 -0.73625,-0.34875 -1.29812,-0.949375 -0.56188,-0.62 -0.89125,-1.4725 -0.32938,-0.8525 -0.32938,-1.840625 0,-0.988125 0.32938,-1.86 0.34875,-0.871875 0.91062,-1.4725 0.58125,-0.62 1.33688,-0.96875 0.75562,-0.368125 1.56937,-0.368125 z m 2.59625,4.669375 q 0,-0.833125 -0.2325,-1.4725 -0.21312,-0.65875 -0.58125,-1.104375 -0.36812,-0.445625 -0.8525,-0.678125 -0.465,-0.2325 -0.98812,-0.2325 -0.52313,0 -1.0075,0.2325 -0.465,0.2325 -0.83313,0.678125 -0.34875,0.445625 -0.56187,1.085 -0.21313,0.62 -0.21313,1.414375 0,0.775 0.21313,1.414375 0.21312,0.639375 0.56187,1.104375 0.36813,0.465 0.8525,0.716875 0.48438,0.251875 1.02688,0.251875 0.5425,0 1.0075,-0.213125 0.48437,-0.2325 0.83312,-0.65875 0.36813,-0.445625 0.56188,-1.085 0.21312,-0.639375 0.21312,-1.453125 z"
           style="font-style:normal;font-variant:normal;font-weight:normal;font-stretch:normal;font-size:19.375px;line-height:125%;font-family:Inconsolata;-inkscape-font-specification:'Inconsolata, Normal';text-align:start;writing-mode:lr-tb;text-anchor:start"
           id="path3361" />
        <path
           d="m 146.75315,59.744113 1.45312,0 -0.0387,1.705 q 0.40688,-0.93 1.27875,-1.414375 0.89125,-0.50375 1.89875,-0.50375 1.43375,0 2.36375,0.96875 l -0.63937,1.336875 q -0.21313,-0.290625 -0.3875,-0.484375 -0.17438,-0.19375 -0.3875,-0.329375 -0.19375,-0.135625 -0.44563,-0.213125 -0.2325,-0.0775 -0.58125,-0.0775 -0.63937,0 -1.20125,0.31 -0.56187,0.290625 -0.98812,0.794375 -0.40688,0.484375 -0.65875,1.12375 -0.25188,0.639375 -0.25188,1.336875 l 0,4.320625 -1.41437,0 0,-8.87375 z"
           style="font-style:normal;font-variant:normal;font-weight:normal;font-stretch:normal;font-size:19.375px;line-height:125%;font-family:Inconsolata;-inkscape-font-specification:'Inconsolata, Normal';text-align:start;writing-mode:lr-tb;text-anchor:start"
           id="path3363" />
        <path
           d="m 155.80127,55.714113 1.58875,0 q 0,0.11625 -0.0969,0.251875 -0.0775,0.135625 -0.0775,0.251875 l 0,7.595 4.43687,-4.1075 q 0.44563,0.09688 1.02688,0.09688 l 0.50375,0 -3.72,3.506875 4.34,5.289375 -1.80188,0.0775 -3.62312,-4.514375 -1.1625,1.085 0,3.351875 -1.41438,0 0,-12.884375 z"
           style="font-style:normal;font-variant:normal;font-weight:normal;font-stretch:normal;font-size:19.375px;line-height:125%;font-family:Inconsolata;-inkscape-font-specification:'Inconsolata, Normal';text-align:start;writing-mode:lr-tb;text-anchor:start"
           id="path3365" />
        <path
           d="m 168.3369,58.542863 1.56937,0 q -0.0194,0.11625 -0.0581,0.27125 -0.0387,0.135625 -0.0581,0.251875 l -0.29062,2.90625 3.08062,-1.395 0.50375,1.181875 -3.31312,1.0075 2.44125,2.925625 -1.06563,0.833125 -2.0925,-3.21625 -2.17,3.235625 -1.04625,-0.8525 2.51875,-2.90625 -3.35187,-1.026875 0.50375,-1.259375 3.13875,1.4725 -0.31,-3.429375 z"
           style="font-style:normal;font-variant:normal;font-weight:normal;font-stretch:normal;font-size:19.375px;line-height:125%;font-family:Inconsolata;-inkscape-font-specification:'Inconsolata, Normal';text-align:start;writing-mode:lr-tb;text-anchor:start"
           id="path3367" />
        <path
           d="m 175.13752,68.850363 6.06438,-13.13625 1.1625,0.600625 -6.08375,13.0975 -1.14313,-0.561875 z"
           style="font-style:normal;font-variant:normal;font-weight:normal;font-stretch:normal;font-size:19.375px;line-height:125%;font-family:Inconsolata;-inkscape-font-specification:'Inconsolata, Normal';text-align:start;writing-mode:lr-tb;text-anchor:start"
           id="path3369" />
      </g>
      <g
         style="font-style:normal;font-weight:normal;font-size:40px;line-height:125%;font-family:sans-serif;letter-spacing:0px;word-spacing:0px;fill:#ffffff;fill-opacity:1;stroke:none;stroke-width:1px;stroke-linecap:butt;stroke-linejoin:miter;stroke-opacity:1"
         id="text3363-2">
        <path
           d="m 22.251941,48.381493 0,-37.057931 4.625276,0 q 0,0.05573 0,0.05573 0.05573,0 0.05573,0.05573 0,0.167179 -0.278631,0.501536 -0.222905,0.278631 -0.334357,0.724441 l 0,14.767446 q 1.504608,-2.340501 3.733656,-3.733656 2.284775,-1.393155 4.625276,-1.393155 1.727512,0 3.120667,0.612988 1.448882,0.557262 2.50768,1.838965 1.058798,1.281703 1.61606,3.287846 0.557262,2.006144 0.557262,4.903907 l 0,15.436161 -3.956561,0 0,-15.324709 q 0,-4.012287 -1.393155,-5.628347 -1.337429,-1.61606 -3.287847,-1.61606 -1.281702,0 -2.563405,0.557262 -1.281703,0.557262 -2.50768,1.560334 -1.17025,1.003072 -1.838965,2.451953 -0.612988,1.448882 -0.612988,3.343573 l 0,14.655994 -4.068014,0 z"
           style="font-style:normal;font-variant:normal;font-weight:normal;font-stretch:normal;font-size:55.72621155px;line-height:125%;font-family:Inconsolata;-inkscape-font-specification:'Inconsolata, Normal';text-align:start;writing-mode:lr-tb;text-anchor:start"
           id="path3372" />
        <path
           d="m 49.724964,22.914614 4.012287,0 0,14.210184 q 0,2.451953 0.44581,4.12374 0.445809,1.61606 1.225976,2.619131 0.835893,1.003072 1.838965,1.448882 1.058798,0.44581 2.284775,0.44581 1.337429,-0.111453 2.563406,-0.668715 1.225976,-0.557262 2.173322,-1.560334 1.003072,-1.058798 1.560334,-2.674858 0.557262,-1.61606 0.557262,-3.900835 l 0,-14.043005 4.068013,0 0,23.182104 q 0,1.281703 0.278631,2.284775 l -4.235192,0 q -0.05573,-0.390084 -0.111452,-0.835894 -0.05573,-0.501535 0,-1.114524 l 0.05573,-1.950417 q -1.225976,2.117596 -3.343572,3.343572 -2.06187,1.170251 -4.56955,1.170251 -1.950417,0 -3.510751,-0.668715 -1.560334,-0.72444 -2.842037,-2.173322 -1.225977,-1.448881 -1.894691,-3.67793 -0.612988,-2.229048 -0.612988,-5.349716 l 0.05573,-14.210184 z"
           style="font-style:normal;font-variant:normal;font-weight:normal;font-stretch:normal;font-size:55.72621155px;line-height:125%;font-family:Inconsolata;-inkscape-font-specification:'Inconsolata, Normal';text-align:start;writing-mode:lr-tb;text-anchor:start"
           id="path3374" />
        <path
           d="m 77.420891,11.323562 4.681002,0 0,0.111452 q 0,0.278631 -0.334358,0.557262 -0.278631,0.222905 -0.278631,0.557263 l 0,14.26591 q 1.225977,-2.06187 3.287847,-3.287847 2.117596,-1.225976 4.290918,-1.225976 2.117596,0 4.012287,0.835893 1.894692,0.780167 3.343573,2.451953 1.448882,1.61606 2.284775,4.068014 0.835893,2.451953 0.835893,5.739799 0,3.455025 -0.947346,6.018431 -0.891619,2.50768 -2.396227,4.235192 -1.504608,1.671787 -3.399299,2.50768 -1.894691,0.835893 -3.900835,0.835893 -2.3405,0 -4.290918,-1.058798 -1.950417,-1.058798 -3.23212,-2.897763 l -1.393155,3.343573 -2.563406,0 0,-37.057931 z m 6.965776,33.157096 q 1.058798,0.557262 1.894692,0.780167 0.835893,0.167178 1.560333,0.167178 1.114525,0 2.451954,-0.390083 1.337429,-0.44581 2.451953,-1.504608 1.170251,-1.058798 1.894691,-2.842037 0.780167,-1.783238 0.780167,-4.513823 0,-5.071085 -2.06187,-7.745943 -2.061869,-2.674858 -5.962704,-2.674858 -1.393156,0 -2.953489,1.003072 -1.560334,1.003071 -2.284775,2.674858 -0.668715,1.671786 -0.668715,5.461168 0,2.340501 0.111453,3.956561 0.111452,1.616061 0.445809,2.730585 0.334358,1.058798 0.89162,1.727512 0.557262,0.668715 1.448881,1.170251 z"
           style="font-style:normal;font-variant:normal;font-weight:normal;font-stretch:normal;font-size:55.72621155px;line-height:125%;font-family:Inconsolata;-inkscape-font-specification:'Inconsolata, Normal';text-align:start;writing-mode:lr-tb;text-anchor:start"
           id="path3376" />
        <path
           d="m 116.37351,22.301626 q 2.00615,0 3.90084,0.72444 1.89469,0.724441 3.28784,2.229049 1.44889,1.448881 2.28478,3.733656 0.89162,2.284775 0.89162,5.405443 0,0.445809 -0.0557,0.947345 0,0.44581 -0.0557,0.891619 l -18.11102,0 q 0.11145,2.674859 0.89162,4.513824 0.83589,1.783238 2.06187,2.897763 1.22597,1.114524 2.73058,1.61606 1.50461,0.445809 3.00922,0.445809 3.95656,0 6.57569,-2.842036 l 2.22905,2.173322 q -3.23212,3.900835 -8.9162,3.900835 -2.78631,0 -5.12681,-0.835893 -2.28477,-0.89162 -3.90083,-2.563406 -1.61606,-1.671787 -2.50768,-4.12374 -0.89162,-2.507679 -0.89162,-5.684073 0,-3.232121 0.89162,-5.7398 0.94734,-2.50768 2.50768,-4.179466 1.61606,-1.727513 3.73365,-2.619132 2.1176,-0.891619 4.56955,-0.891619 z m -7.69021,10.810885 13.98727,0 q 0,-0.222905 0,-0.390084 0.0557,-0.222905 0.0557,-0.501536 0,-1.393155 -0.55726,-2.619132 -0.50154,-1.281703 -1.39316,-2.173322 -0.89162,-0.947346 -2.11759,-1.504608 -1.17025,-0.557262 -2.56341,-0.557262 -2.61913,0 -4.73673,1.894691 -2.11759,1.838965 -2.67485,5.851253 z"
           style="font-style:normal;font-variant:normal;font-weight:normal;font-stretch:normal;font-size:55.72621155px;line-height:125%;font-family:Inconsolata;-inkscape-font-specification:'Inconsolata, Normal';text-align:start;writing-mode:lr-tb;text-anchor:start"
           id="path3378" />
        <path
           d="m 135.32042,22.914614 4.17947,0 -0.11145,4.903907 q 1.17025,-2.674859 3.67793,-4.068014 2.5634,-1.448881 5.46117,-1.448881 4.12374,0 6.79859,2.78631 l -1.83896,3.845109 q -0.61299,-0.835893 -1.11452,-1.393156 -0.50154,-0.557262 -1.11453,-0.947345 -0.55726,-0.390084 -1.2817,-0.612988 -0.66872,-0.222905 -1.67179,-0.222905 -1.83896,0 -3.45502,0.891619 -1.61606,0.835893 -2.84204,2.284775 -1.17025,1.393155 -1.89469,3.23212 -0.72444,1.838965 -0.72444,3.845109 l 0,12.426945 -4.06802,0 0,-25.522605 z"
           style="font-style:normal;font-variant:normal;font-weight:normal;font-stretch:normal;font-size:55.72621155px;line-height:125%;font-family:Inconsolata;-inkscape-font-specification:'Inconsolata, Normal';text-align:start;writing-mode:lr-tb;text-anchor:start"
           id="path3380" />
        <path
           d="m 168.14316,16.116016 4.40237,-0.724441 q 0,0.501536 -0.16718,0.89162 -0.11145,0.390083 -0.16718,0.612988 l -0.66872,6.018431 8.35894,0 0,3.287846 -8.35894,0 q -0.50153,4.959633 -0.50153,9.306278 0,2.674858 0.11145,4.513823 0.11145,1.838965 0.55726,2.897763 0.50154,1.058798 1.39316,1.671786 0.89162,0.557262 2.39623,0.557262 2.5634,0 5.68407,-2.284774 l 1.22598,3.176394 q -3.84511,2.842037 -7.91313,2.842037 -4.01228,0 -5.85125,-2.396228 -1.83896,-2.451953 -1.67178,-7.913122 0,-2.006143 0.11145,-5.126811 0.11145,-3.120668 0.44581,-7.244408 l -5.96271,0 0,-3.287846 6.12989,0 0.44581,-6.798598 z"
           style="font-style:normal;font-variant:normal;font-weight:normal;font-stretch:normal;font-size:55.72621155px;line-height:125%;font-family:Inconsolata;-inkscape-font-specification:'Inconsolata, Normal';text-align:start;writing-mode:lr-tb;text-anchor:start"
           id="path3382" />
      </g>
    </g>
  </g>
</svg>
